<svg xmlns="http://www.w3.org/2000/svg" width="107" height="83" viewBox="0 0 107 83"><g><g><path fill="none" stroke="#8a8a8e" stroke-dasharray=".1 4" stroke-linecap="round" stroke-linejoin="round" stroke-miterlimit="50" stroke-width="2" d="M102.254 34.737c2.85 9.313 4.23 19.448 3.592 27.155-.735 8.845-4.017 14.83-9.758 17.79-2.426 1.251-5.096 1.886-7.937 1.886-7.672 0-14.814-4.582-22.374-9.433-5.725-3.673-12.847-8.243-17.3-8.243-4.452 0-11.575 4.57-17.298 8.242-5.45 3.498-11.956 6.855-17.327 8.457"/></g><g><path fill="none" stroke="#8a8a8e" stroke-dasharray=".1 4" stroke-linecap="round" stroke-linejoin="round" stroke-miterlimit="50" stroke-width="2" d="M95.447 30.675c3.91 9.937 6.046 22.047 5.32 30.796-.58 6.975-2.94 11.58-7.015 13.68-1.698.877-3.58 1.32-5.6 1.32-6.18 0-12.71-4.19-19.625-8.625-6.61-4.242-14.104-9.05-20.05-9.05-5.947 0-13.439 4.808-20.05 9.05-6.914 4.435-13.445 8.625-19.623 8.625h-.003v0"/></g><g><path fill="#fff" d="M48.477 53.7c15.405 0 33.158 21.967 42.94 16.921 9.782-5.045 1.689-43.308-9.203-51.449-10.892-8.14-22.161 3.29-33.737 3.29s-22.845-11.43-33.737-3.29C3.848 27.313-4.244 65.576 5.537 70.622c9.78 5.045 27.535-16.923 42.94-16.923z"/></g><g><path fill="none" stroke="#252528" stroke-miterlimit="50" stroke-width="2" d="M48.477 53.7c15.405 0 33.158 21.967 42.94 16.921 9.782-5.045 1.689-43.308-9.203-51.449-10.892-8.14-22.161 3.29-33.737 3.29s-22.845-11.43-33.737-3.29C3.848 27.313-4.244 65.576 5.537 70.622c9.78 5.045 27.535-16.923 42.94-16.923z"/></g><g><path fill="#fff" d="M29.233 45.145c-2.238 2.237-3.66 4.868-6.593 4.868-2.934 0-4.356-2.63-6.595-4.868-2.237-2.238-4.868-3.66-4.868-6.593 0-2.932 2.63-4.355 4.868-6.594 2.239-2.238 3.66-4.868 6.594-4.868 2.933-.001 4.356 2.63 6.594 4.868 2.238 2.238 4.868 3.66 4.868 6.593s-2.63 4.355-4.868 6.593z"/></g><g><path fill="none" stroke="#286ab3" stroke-miterlimit="50" stroke-width="2" d="M29.233 45.145c-2.238 2.237-3.66 4.868-6.593 4.868-2.934 0-4.356-2.63-6.595-4.868-2.237-2.238-4.868-3.66-4.868-6.593 0-2.932 2.63-4.355 4.868-6.594 2.239-2.238 3.66-4.868 6.594-4.868 2.933-.001 4.356 2.63 6.594 4.868 2.238 2.238 4.868 3.66 4.868 6.593s-2.63 4.355-4.868 6.593z"/></g><g><path fill="#286ab3" d="M24.657 33.477a2.017 2.017 0 1 1-4.035 0 2.017 2.017 0 0 1 4.035 0z"/></g><g><path fill="#286ab3" d="M27.714 40.57a2.018 2.018 0 1 1 0-4.036 2.018 2.018 0 0 1 0 4.035z"/></g><g><path fill="#286ab3" d="M68.768 36.703a2.421 2.421 0 1 1-.002-4.843 2.421 2.421 0 0 1 .002 4.843z"/></g><g><path fill="#286ab3" d="M77.251 33.106a2.422 2.422 0 1 1 0-4.844 2.422 2.422 0 0 1 0 4.844z"/></g><g><path fill="#252528" d="M69.502 44.653a2.422 2.422 0 1 1 0-4.843 2.422 2.422 0 0 1 0 4.843z"/></g><g><path fill="#252528" d="M77.985 41.057a2.421 2.421 0 1 1 .001-4.843 2.421 2.421 0 0 1 0 4.843z"/></g><g><path fill="#286ab3" d="M20.621 43.626a2.019 2.019 0 1 1 4.038 0 2.019 2.019 0 0 1-4.038 0z"/></g><g><path fill="#286ab3" d="M17.564 36.533a2.017 2.017 0 1 1 .002 4.035 2.017 2.017 0 0 1-.002-4.035z"/></g><g><path fill="#fff" d="M43.107 39.297h2.602"/><path fill="none" stroke="#252528" stroke-linecap="round" stroke-miterlimit="50" stroke-width="2" d="M43.107 39.297h2.602"/></g><g><path fill="#fff" d="M53.846 39.297h-2.601"/><path fill="none" stroke="#286ab3" stroke-linecap="round" stroke-miterlimit="50" stroke-width="2" d="M53.846 39.297h-2.601"/></g><g><path fill="none" stroke="#252528" stroke-miterlimit="50" stroke-width="2" d="M48.477 22.638c0-10.946 13.642-11.868 13.642-22.011"/></g></g></svg>