<svg xmlns="http://www.w3.org/2000/svg" width="85" height="86" viewBox="0 0 85 86"><g><g><path fill="#fff" d="M72.487 74.65H2.462a1 1 0 0 1-1-1V8.72c0-.55.448-1 1-1h70.025c.552 0 1 .45 1 1V73.65a1 1 0 0 1-1 1z"/></g><g><path fill="none" stroke="#252528" stroke-miterlimit="50" stroke-width="2" d="M72.487 74.65v0H2.462a1 1 0 0 1-1-1V8.72c0-.55.448-1 1-1h70.025c.552 0 1 .45 1 1V73.65a1 1 0 0 1-1 1z"/></g><g><path fill="none" stroke="#252528" stroke-miterlimit="50" stroke-width="2" d="M1.462 24.042h72.025"/></g><g><path fill="none" stroke="#252528" stroke-miterlimit="50" stroke-width="2" d="M18.991 40.549a3.981 3.981 0 1 1-7.963-.001 3.981 3.981 0 0 1 7.963 0z"/></g><g><path fill="none" stroke="#252528" stroke-miterlimit="50" stroke-width="2" d="M41.457 40.549a3.981 3.981 0 0 1-3.982 3.98 3.982 3.982 0 1 1 3.982-3.98z"/></g><g><path fill="none" stroke="#252528" stroke-miterlimit="50" stroke-width="2" d="M18.991 58.388a3.981 3.981 0 1 1-7.963-.001 3.981 3.981 0 0 1 7.963 0z"/></g><g><path fill="none" stroke="#252528" stroke-miterlimit="50" stroke-width="2" d="M41.457 58.388a3.981 3.981 0 0 1-3.982 3.98 3.982 3.982 0 1 1 3.982-3.98z"/></g><g><path fill="none" stroke="#252528" stroke-miterlimit="50" stroke-width="2" d="M63.922 58.388a3.982 3.982 0 1 1-7.965-.001 3.982 3.982 0 0 1 7.965 0z"/></g><g><path fill="none" stroke="#286ab3" stroke-miterlimit="50" stroke-width="2" d="M63.111 1.352h5.278"/></g><g><path fill="none" stroke="#286ab3" stroke-miterlimit="50" stroke-width="2" d="M20.425 1.352h34.644"/></g><g><path fill="none" stroke="#286ab3" stroke-miterlimit="50" stroke-width="2" d="M6.559 1.352h4.946"/></g><g><path fill="none" stroke="#252528" stroke-miterlimit="50" stroke-width="2" d="M15.912 10.27V1.352"/></g><g><path fill="none" stroke="#252528" stroke-miterlimit="50" stroke-width="2" d="M59.037 10.27V1.352"/></g><g><path fill="none" stroke="#8a8a8e" stroke-dasharray=".1 4" stroke-linecap="round" stroke-linejoin="round" stroke-miterlimit="50" stroke-width="2" d="M83.68 15.367v58.01c0 6.323-5.144 11.467-11.467 11.467H7.833v0"/></g><g><path fill="none" stroke="#8a8a8e" stroke-dasharray=".1 4" stroke-linecap="round" stroke-linejoin="round" stroke-miterlimit="50" stroke-width="2" d="M78.584 12.82v60.556a6.379 6.379 0 0 1-6.371 6.371H5.284v0"/></g><g><path fill="#fff" d="M65.833 40.549a5.894 5.894 0 1 1-11.788-.002 5.894 5.894 0 0 1 11.788.002z"/></g><g><path fill="none" stroke="#286ab3" stroke-miterlimit="50" stroke-width="2" d="M65.833 40.549a5.894 5.894 0 1 1-11.788-.002 5.894 5.894 0 0 1 11.788.002z"/></g><g><path fill="#fff" d="M61.938 40.549a1.998 1.998 0 1 1-3.996-.001 1.998 1.998 0 0 1 3.995 0z"/></g><g><path fill="none" stroke="#286ab3" stroke-miterlimit="50" stroke-width="2" d="M61.938 40.549a1.998 1.998 0 1 1-3.996-.001 1.998 1.998 0 0 1 3.995 0z"/></g></g></svg>