<svg xmlns="http://www.w3.org/2000/svg" width="92" height="90" viewBox="0 0 92 90"><g><g><path fill="none" stroke="#8a8a8e" stroke-dasharray=".1 4" stroke-linecap="round" stroke-linejoin="round" stroke-miterlimit="50" stroke-width="2" d="M90.89 13.734v0L58.086 62.536v8.202c0 5.658-4.007 10.397-9.333 11.53C46.858 86.244 42.798 89 38.107 89"/></g><g><path fill="none" stroke="#8a8a8e" stroke-dasharray=".1 4" stroke-linecap="round" stroke-linejoin="round" stroke-miterlimit="50" stroke-width="2" d="M88.047 7.401v0L52.193 60.74v10A5.892 5.892 0 0 1 46.3 76.63a5.89 5.89 0 0 1-2.3-.465v1.05a5.894 5.894 0 0 1-9.188 4.885"/></g><g><path fill="#fff" d="M38.106 77.214V58.943L1.19 4.026c-.683-.977.016-2.318 1.207-2.318h79.611c1.192 0 1.89 1.34 1.207 2.318L46.3 58.943v11.795"/><path fill="none" stroke="#252528" stroke-linecap="round" stroke-miterlimit="50" stroke-width="2" d="M38.106 77.214v0-18.271 0L1.19 4.026c-.683-.977.016-2.318 1.207-2.318h79.611c1.192 0 1.89 1.34 1.207 2.318L46.3 58.943v11.795"/></g><g><path fill="none" stroke="#286ab3" stroke-linejoin="round" stroke-miterlimit="50" stroke-width="2" d="M22.68 20.15v0l19.523 29.043v0L61.727 20.15v0s-6.872 3.674-19.524-2.828C29.552 10.82 22.68 20.15 22.68 20.15v0z"/></g></g></svg>