<svg xmlns="http://www.w3.org/2000/svg" width="105" height="104" viewBox="0 0 105 104"><g><g><path fill="#fff" d="M44.447 92.694H1.781V50.028h42.666z"/><path fill="none" stroke="#252528" stroke-linecap="round" stroke-linejoin="round" stroke-miterlimit="50" stroke-width="2" d="M44.447 92.694v0H1.781v0-42.666 0h42.666v0z"/></g><g><path fill="#fff" d="M93.168 92.694H50.502V50.028h42.666z"/><path fill="none" stroke="#252528" stroke-linecap="round" stroke-linejoin="round" stroke-miterlimit="50" stroke-width="2" d="M93.168 92.694v0H50.502v0-42.666 0h42.666v0z"/></g><g><path fill="#fff" d="M23.114 60.437c6.034 0 10.925 4.892 10.925 10.925 0 6.034-4.891 10.926-10.925 10.926-6.034 0-10.925-4.892-10.925-10.926"/><path fill="none" stroke="#286ab3" stroke-linecap="round" stroke-miterlimit="50" stroke-width="2" d="M23.114 60.437c6.034 0 10.925 4.892 10.925 10.925 0 6.034-4.891 10.926-10.925 10.926-6.034 0-10.925-4.892-10.925-10.926"/></g><g><path fill="#fff" d="M23.114 73.92v-5.117"/><path fill="none" stroke="#286ab3" stroke-linecap="round" stroke-miterlimit="50" stroke-width="2" d="M23.114 73.92v-5.117"/></g><g><path fill="#fff" d="M58.682 82.287H84.99"/><path fill="none" stroke="#252528" stroke-linecap="round" stroke-linejoin="round" stroke-miterlimit="50" stroke-width="2" d="M58.682 82.287H84.99"/></g><g><path fill="#fff" d="M58.682 74.754l8.168-5.951 4.985 2.558 5.098.82 8.056-7.51"/><path fill="none" stroke="#286ab3" stroke-linecap="round" stroke-miterlimit="50" stroke-width="2" d="M58.682 74.754v0l8.168-5.951v0l4.985 2.558v0l5.098.82v0l8.056-7.51v0"/></g><g><path fill="#fff" d="M93.168 1.307H1.781V43.53h91.387z"/><path fill="none" stroke="#252528" stroke-linecap="round" stroke-linejoin="round" stroke-miterlimit="50" stroke-width="2" d="M93.168 1.307v0H1.781V43.53h91.387v0z"/></g><g><path fill="#fff" d="M15.749 11.903a3.7 3.7 0 1 1-7.4 0 3.7 3.7 0 0 1 7.4 0z"/></g><g><path fill="none" stroke="#286ab3" stroke-linecap="round" stroke-miterlimit="50" stroke-width="2" d="M15.749 11.903a3.7 3.7 0 1 1-7.4 0 3.7 3.7 0 0 1 7.4 0z"/></g><g><path fill="#fff" d="M23.114 11.903h37.732"/><path fill="none" stroke="#252528" stroke-linecap="round" stroke-linejoin="round" stroke-miterlimit="50" stroke-width="2" d="M23.114 11.903h37.732"/></g><g><path fill="#fff" d="M9.623 36.42h75.366"/><path fill="none" stroke="#252528" stroke-linecap="round" stroke-linejoin="round" stroke-miterlimit="50" stroke-width="2" d="M9.623 36.42h75.366"/></g><g><path fill="#fff" d="M71.063 18.572h13.925"/><path fill="none" stroke="#252528" stroke-linecap="round" stroke-linejoin="round" stroke-miterlimit="50" stroke-width="2" d="M71.063 18.572h13.925"/></g><g><path fill="#fff" d="M71.063 25.398h13.925"/><path fill="none" stroke="#252528" stroke-linecap="round" stroke-linejoin="round" stroke-miterlimit="50" stroke-width="2" d="M71.063 25.398h13.925"/></g><g><path fill="#fff" d="M9.96 30.44l15.8-5.952 9.643 2.558 9.861.82 15.582-7.51"/><path fill="none" stroke="#286ab3" stroke-linecap="round" stroke-miterlimit="50" stroke-width="2" d="M9.96 30.44v0l15.8-5.952v0l9.643 2.558v0l9.861.82v0l15.582-7.51v0"/></g><g><path fill="none" stroke="#8a8a8e" stroke-dasharray=".1 4" stroke-linecap="round" stroke-linejoin="round" stroke-miterlimit="50" stroke-width="2" d="M6.877 97.791v0h88.84a2.548 2.548 0 0 0 2.548-2.548V5.13v0"/></g><g><path fill="none" stroke="#8a8a8e" stroke-dasharray=".1 4" stroke-linecap="round" stroke-linejoin="round" stroke-miterlimit="50" stroke-width="2" d="M11.975 102.889v0h83.742a7.646 7.646 0 0 0 7.645-7.646V10.227v0"/></g></g></svg>