<svg xmlns="http://www.w3.org/2000/svg" width="91" height="92" viewBox="0 0 91 92"><g><g><path fill="#fff" d="M79.615 76.846c0 1.968-17.524 3.564-39.14 3.564-21.618 0-39.142-1.596-39.142-3.564 0-1.97 3.034-34.486 39.141-34.486s39.141 32.517 39.141 34.486z"/></g><g><path fill="none" stroke="#252528" stroke-miterlimit="50" stroke-width="2" d="M79.615 76.846c0 1.968-17.524 3.564-39.14 3.564-21.618 0-39.142-1.596-39.142-3.564 0-1.97 3.034-34.486 39.141-34.486s39.141 32.517 39.141 34.486z"/></g><g><path fill="#fff" d="M59.71 21.35c0 12.902-8.625 26.966-19.266 26.966-10.64 0-19.266-14.064-19.266-26.966 0-12.902 8.626-19.758 19.266-19.758 10.64 0 19.267 6.856 19.267 19.758z"/></g><g><path fill="none" stroke="#252528" stroke-miterlimit="50" stroke-width="2" d="M59.71 21.35c0 12.902-8.625 26.966-19.266 26.966-10.64 0-19.266-14.064-19.266-26.966 0-12.902 8.626-19.758 19.266-19.758 10.64 0 19.267 6.856 19.267 19.758z"/></g><g><path fill="none" stroke="#252528" stroke-miterlimit="50" stroke-width="2" d="M59.711 20.934a106.465 106.465 0 0 1-19.267 1.743c-6.592 0-13.019-.597-19.207-1.731"/></g><g><path fill="none" stroke="#252528" stroke-miterlimit="50" stroke-width="2" d="M30.616 44.092c-.082 5.98-3.78 5.935-3.78 5.935"/></g><g><path fill="none" stroke="#252528" stroke-miterlimit="50" stroke-width="2" d="M50.273 44.092c.082 5.98 3.78 5.935 3.78 5.935"/></g><g><path fill="#fff" d="M38.36 60.418s-2.428 4.553-2.428 16.797"/><path fill="none" stroke="#286ab3" stroke-linejoin="round" stroke-miterlimit="50" stroke-width="2" d="M38.36 60.418s-2.428 4.553-2.428 16.797"/></g><g><path fill="#fff" d="M42.528 60.418s2.429 4.553 2.429 16.797"/><path fill="none" stroke="#286ab3" stroke-linejoin="round" stroke-miterlimit="50" stroke-width="2" d="M42.528 60.418s2.429 4.553 2.429 16.797"/></g><g><path fill="none" stroke="#252528" stroke-miterlimit="50" stroke-width="2" d="M25.981 44.705c2.058 17.15 11.434 35.692 11.434 35.692"/></g><g><path fill="none" stroke="#252528" stroke-miterlimit="50" stroke-width="2" d="M54.908 44.705c-2.058 17.15-11.433 35.692-11.433 35.692"/></g><g><path fill="none" stroke="#252528" stroke-miterlimit="50" stroke-width="2" d="M29.164 48.855s1.337 2.43 4.897 5.049"/></g><g><path fill="none" stroke="#252528" stroke-miterlimit="50" stroke-width="2" d="M51.726 48.855s-1.337 2.43-4.897 5.049"/></g><g><path fill="#fff" d="M46.881 54.143c0 1.082-2.882 8.329-6.437 8.329s-6.437-7.247-6.437-8.33c0-1.08 2.882-1.956 6.437-1.956s6.437.876 6.437 1.957z"/></g><g><path fill="none" stroke="#286ab3" stroke-linejoin="round" stroke-miterlimit="50" stroke-width="2" d="M46.881 54.143c0 1.082-2.882 8.329-6.437 8.329s-6.437-7.247-6.437-8.33c0-1.08 2.882-1.956 6.437-1.956s6.437.876 6.437 1.957z"/></g><g><path fill="none" stroke="#252528" stroke-miterlimit="50" stroke-width="2" d="M40.444 1.592v46.724"/></g><g><path fill="none" stroke="#252528" stroke-miterlimit="50" stroke-width="2" d="M10.934 53.506s.95 13.16 1.513 25.826"/></g><g><path fill="none" stroke="#252528" stroke-miterlimit="50" stroke-width="2" d="M69.955 53.506s-.95 13.16-1.513 25.826"/></g><g><path fill="none" stroke="#8a8a8e" stroke-dasharray=".1 4" stroke-linecap="round" stroke-linejoin="round" stroke-miterlimit="50" stroke-width="2" d="M67.443 8.582c1.464 3.504 2.31 7.435 2.432 11.686.015.22.02.438.02.654.007.137.009.28.009.428 0 5.701-1.25 11.57-3.571 16.977a43.041 43.041 0 0 1 8.669 6.321 10.249 10.249 0 0 1 4.193 4.549c10.32 12.879 10.614 27.501 10.614 27.648 0 10.784-11.983 11.876-20.732 12.673-7.691.701-17.85 1.085-28.603 1.085-1.055 0-2.098-.004-3.135-.011-10.086-.072-19.508-.489-26.527-1.175-1.556-.152-3.22-.315-4.895-.55"/></g><g><path fill="none" stroke="#8a8a8e" stroke-dasharray=".1 4" stroke-linecap="round" stroke-linejoin="round" stroke-miterlimit="50" stroke-width="2" d="M59.715 5.256c3.105 4.007 4.916 9.217 5.068 15.266.014.166.018.33.016.492.005.105.009.219.009.336 0 6.646-2.003 13.625-5.368 19.332 4.775 1.925 8.98 4.652 12.569 8.158a5.116 5.116 0 0 1 2.766 3.002c9.497 11.439 9.938 24.867 9.938 25.003 0 6.13-7.82 6.843-16.1 7.597-7.541.687-17.534 1.065-28.14 1.065a395.7 395.7 0 0 1-3.096-.013c-9.946-.07-19.204-.478-26.068-1.15-1.922-.188-5.092-.373-6.856-.638"/></g></g></svg>