<svg xmlns="http://www.w3.org/2000/svg" width="99" height="82" viewBox="0 0 99 82"><g><g><path fill="none" stroke="#8a8a8e" stroke-dasharray=".1 4" stroke-linecap="round" stroke-linejoin="round" stroke-miterlimit="50" stroke-width="2" d="M97.893 18.893v50.429c0 6.324-5.144 11.467-11.468 11.467H7.622v0"/></g><g><path fill="none" stroke="#8a8a8e" stroke-dasharray=".1 4" stroke-linecap="round" stroke-linejoin="round" stroke-miterlimit="50" stroke-width="2" d="M92.796 13.796V69.32a6.378 6.378 0 0 1-6.371 6.37H5.072v0"/></g><g><path fill="#fff" d="M86.7 70.597H2.25a1 1 0 0 1-1-1V9.7a1 1 0 0 1 1-1H86.7a1 1 0 0 1 1 1v59.897a1 1 0 0 1-1 1z"/></g><g><path fill="none" stroke="#252528" stroke-miterlimit="50" stroke-width="2" d="M86.7 70.597v0H2.25a1 1 0 0 1-1-1V9.7a1 1 0 0 1 1-1H86.7a1 1 0 0 1 1 1v59.897a1 1 0 0 1-1 1z"/></g><g><path fill="#fff" d="M1.25 26.948v14.618a7.009 7.009 0 0 0 7.008 7.008H80.69a7.009 7.009 0 0 0 7.01-7.008V26.948"/><path fill="none" stroke="#252528" stroke-miterlimit="50" stroke-width="2" d="M1.25 26.948v14.618a7.009 7.009 0 0 0 7.008 7.008H80.69a7.009 7.009 0 0 0 7.01-7.008V26.948v0"/></g><g><path fill="#fff" d="M39.655 37.74v22.028a4.82 4.82 0 0 0 9.64 0V37.74z"/></g><g><path fill="none" stroke="#252528" stroke-miterlimit="50" stroke-width="2" d="M39.655 37.74v22.028a4.82 4.82 0 0 0 9.64 0V37.74v0h-9.64v0z"/></g><g><path fill="#fff" d="M51.766 58.479H37.183v-5.796h14.583z"/><path fill="none" stroke="#252528" stroke-miterlimit="50" stroke-width="2" d="M51.766 58.479v0H37.183v0-5.796 0h14.583v0z"/></g><g><path fill="#fff" d="M56.748 8.7H32.203V3.404a2 2 0 0 1 2-2h20.546a2 2 0 0 1 2 2z"/></g><g><path fill="none" stroke="#252528" stroke-linecap="round" stroke-miterlimit="50" stroke-width="2" d="M56.748 8.7v0H32.203v0-5.295a2 2 0 0 1 2-2h20.546a2 2 0 0 1 2 2V8.7z"/></g><g><path fill="#fff" d="M51.766 34.958a7.292 7.292 0 1 1-14.585 0 7.292 7.292 0 0 1 14.585 0z"/></g><g><path fill="none" stroke="#286ab3" stroke-linejoin="round" stroke-miterlimit="50" stroke-width="2" d="M51.766 34.958a7.292 7.292 0 1 1-14.585 0 7.292 7.292 0 0 1 14.585 0z"/></g><g><path fill="#286ab3" d="M46.546 34.958a2.07 2.07 0 1 1-4.141 0 2.07 2.07 0 0 1 4.141 0z"/></g></g></svg>