<svg xmlns="http://www.w3.org/2000/svg" width="67" height="21" viewBox="0 0 67 21"><g><g opacity=".5"><path fill="#3c4d6b" d="M30.635 14.796V1.826a1.86 1.86 0 0 1 2.117-1.888 1.93 1.93 0 0 1 1.562 1.889v3.807c1.421-.454 1.918-.354 2.841.554l.284-.185a1.662 1.662 0 0 1 2.386.37.541.541 0 0 0 .725.24 1.55 1.55 0 0 1 2.031 1.42c.114 2.33.214 4.66.242 7.004a25.264 25.264 0 0 1-.228 3.466 2.33 2.33 0 0 1-2.528 2.202h-8.153a2.62 2.62 0 0 1-1.904-.781 373.68 373.68 0 0 0-5.497-5.228 2.3 2.3 0 0 1-.567-2.755 1.291 1.291 0 0 1 1.647-.792l.028.01c.432.12.847.29 1.236.512a15.472 15.472 0 0 1 2.912 2.358zm.853.597c.01.137.01.274 0 .41 0 .385-.27.484-.61.3a2.212 2.212 0 0 1-.356-.284c-.98-.881-1.918-1.804-2.94-2.614a12.114 12.114 0 0 0-2.017-1.208c-.398-.213-.654 0-.838.37a1.42 1.42 0 0 0 .454 1.733c1.733 1.662 3.494 3.309 5.213 4.985a2.484 2.484 0 0 0 1.904.739h7.542a1.731 1.731 0 0 0 1.946-1.718c.1-2.217.141-4.447.156-6.662 0-1.108-.128-2.202-.199-3.31a.725.725 0 0 0-.682-.725.654.654 0 0 0-.696.682v1.42c0 .498-.099.555-.426.555-.326 0-.454-.228-.44-.554V7.58a.966.966 0 0 0-.89-1.036l-.019-.001a1.01 1.01 0 0 0-.967 1.049l.001.017v.979a.411.411 0 0 1-.483.44c-.284 0-.355-.226-.355-.454V7.38a1.18 1.18 0 0 0-1.222-1.122 1.137 1.137 0 0 0-1.122 1.207V8.53c0 .356-.369.654-.653.426a.817.817 0 0 1-.199-.567V2.197a3.18 3.18 0 0 0 0-.57.938.938 0 0 0-1.506-.596c-.324.266-.485.68-.426 1.094-.113 2.197-.17 4.408-.17 6.634z"/></g><g opacity=".5"><path fill="#3c4d6b" d="M12.483 10.52a.595.595 0 0 1-.582.61H.807l-.213-.085-.085-.085a.651.651 0 0 1-.1-.34.596.596 0 0 1 .583-.612h10.951a.598.598 0 0 1 .54.512z"/></g><g opacity=".5"><path fill="#3c4d6b" d="M5.012 14.582a.581.581 0 0 1-.852 0L.679 11.103l-.07-.085-.086-.086-.141-.127a.473.473 0 0 1-.157-.299.473.473 0 0 1 .157-.299l.397-.397a.597.597 0 0 1 .455.17l.483.498.724.709 2.599 2.614a.581.581 0 0 1-.028.781z"/></g><g opacity=".5"><path fill="#3c4d6b" d="M5.012 7.083L2.17 9.924l-.497.497-.54.54a.54.54 0 0 1-.327.17H.665l-.07-.085-.085-.085-.143-.129a.467.467 0 0 1-.156-.298.467.467 0 0 1 .156-.298l.398-.398 3.48-3.48a.61.61 0 0 1 .852 0 .597.597 0 0 1-.085.725z"/></g><g opacity=".5"><path fill="#3c4d6b" d="M54.769 10.293a.597.597 0 0 1 .582-.611h11.094l.213.086.086.085c.063.102.097.22.098.34a.596.596 0 0 1-.582.612H55.309a.6.6 0 0 1-.54-.512z"/></g><g opacity=".5"><path fill="#3c4d6b" d="M62.24 6.217a.581.581 0 0 1 .852 0l3.48 3.479.071.085.085.086.142.127a.467.467 0 0 1 .156.299.467.467 0 0 1-.156.299l-.398.397a.594.594 0 0 1-.454-.17l-.483-.498-.725-.71-2.599-2.613a.582.582 0 0 1 .03-.781z"/></g><g opacity=".5"><path fill="#3c4d6b" d="M62.24 13.73l2.841-2.84.497-.498.54-.54a.545.545 0 0 1 .326-.17h.142l.071.085.085.086.143.128a.476.476 0 0 1 .156.299.479.479 0 0 1-.156.298l-.398.397-3.48 3.48a.614.614 0 0 1-.853 0 .597.597 0 0 1 .086-.724z"/></g></g></svg>