<svg xmlns="http://www.w3.org/2000/svg" width="26" height="20" viewBox="0 0 26 20"><g><g><path fill="#286ab3" d="M1.793 18.21C.785 17.244.281 16.027.281 14.557A7.9 7.9 0 0 1 .69 12.1c.273-.839.746-1.973 1.417-3.402L6.139.446h5.102l-2.645 9.827c1.552 1.092 2.33 2.541 2.33 4.346 0 1.429-.514 2.625-1.543 3.591-1.029.967-2.299 1.449-3.811 1.449-1.511 0-2.771-.482-3.779-1.449z"/></g><g><path fill="#286ab3" d="M24.595 1.895c1.008.967 1.512 2.184 1.512 3.654a7.95 7.95 0 0 1-.41 2.456c-.273.84-.746 1.974-1.417 3.402l-4.032 8.252h-5.101l2.644-9.826c-1.552-1.091-2.33-2.541-2.33-4.346 0-1.428.514-2.624 1.543-3.591 1.029-.966 2.299-1.45 3.81-1.45 1.513 0 2.773.484 3.78 1.45z"/></g></g></svg>