<svg xmlns="http://www.w3.org/2000/svg" width="19" height="16" viewBox="0 0 19 16"><g><g><path fill="#fff" d="M18.429 1.825a7.8 7.8 0 0 1-2.226.6A3.83 3.83 0 0 0 17.908.313a7.796 7.796 0 0 1-2.462.927A3.897 3.897 0 0 0 12.618.035c-2.14 0-3.875 1.71-3.875 3.815 0 .3.034.59.099.87A11.06 11.06 0 0 1 .854.733a3.763 3.763 0 0 0-.525 1.918c0 1.323.686 2.491 1.725 3.176A3.899 3.899 0 0 1 .298 5.35v.048c0 .49.095.954.265 1.383a3.866 3.866 0 0 0 2.845 2.36 3.916 3.916 0 0 1-1.752.065 3.873 3.873 0 0 0 3.62 2.648 7.845 7.845 0 0 1-4.813 1.634c-.313 0-.621-.017-.926-.054a11.105 11.105 0 0 0 5.942 1.715c6.059 0 9.782-4.198 10.764-8.552a10.468 10.468 0 0 0 .253-2.796 7.802 7.802 0 0 0 1.933-1.975z"/></g></g></svg>