<svg xmlns="http://www.w3.org/2000/svg" width="22" height="13" viewBox="0 0 22 13"><g><g><path fill="#fff" d="M21.021 1.443c-.259-.218-1.255-.209-2.244-.204-1.01.006-2.012.012-2.244.102-.214.084-.698 1.25-1.324 2.45-.71 1.356-1.587 2.66-2.142 2.651-.718-.01-.552-2.24-.51-3.876.028-1.085-.148-1.425-.306-1.53-.384-.258-1.428-.51-1.428-.51S7.7.288 7.253 1.647c.595.078 1.62-.112 1.225 4.08-.02.203-.478 1.932-1.938-.407-.36-.578-1.762-4.068-2.244-4.082-1.62-.044-3.206-.11-3.773.204-.517.288.699 2.7 2.753 5.918 1.68 2.63 3.459 4.686 6.527 5.202.573.058 2.084.126 2.55-.1.324-.16-.07-2.442 1.02-2.654.49-.095 2.35 2.37 3.06 2.653.428.171 1.375.235 2.344.204 1.05-.035 2.231.091 2.346-.613.256-1.573-3.16-3.618-3.264-4.59-.074-.698 1.25-1.983 1.938-2.959.838-1.189 1.746-2.62 1.224-3.06z"/></g></g></svg>